<?xml version="1.0" standalone="no"?><!DOCTYPE svg PUBLIC "-//W3C//DTD SVG 1.1//EN" "http://www.w3.org/Graphics/SVG/1.1/DTD/svg11.dtd"><svg t="1566389944526" class="icon" viewBox="0 0 1024 1024" version="1.1" xmlns="http://www.w3.org/2000/svg" p-id="1144" width="64" height="64" xmlns:xlink="http://www.w3.org/1999/xlink"><defs><style type="text/css"></style></defs><path d="M256 750.933333a458.752 458.752 0 0 0 30.037333 162.474667 460.117333 460.117333 0 0 0 656.725334-563.882667A460.458667 460.458667 0 0 0 256 750.933333z" fill="#3FE699" p-id="1145"></path><path d="M512 1024a512 512 0 1 1 512-512 512 512 0 0 1-512 512z m0-921.6a409.6 409.6 0 1 0 409.6 409.6A409.6 409.6 0 0 0 512 102.4z" fill="#2D515E" p-id="1146"></path><path d="M307.2 341.333333m51.2 0l0 0q51.2 0 51.2 51.2l0 102.4q0 51.2-51.2 51.2l0 0q-51.2 0-51.2-51.2l0-102.4q0-51.2 51.2-51.2Z" fill="#2D515E" p-id="1147"></path><path d="M614.4 341.333333m51.2 0l0 0q51.2 0 51.2 51.2l0 102.4q0 51.2-51.2 51.2l0 0q-51.2 0-51.2-51.2l0-102.4q0-51.2 51.2-51.2Z" fill="#2D515E" p-id="1148"></path></svg>